<mxfile host="app.diagrams.net" modified="2023-09-25T10:08:36.776Z" agent="Mozilla/5.0 (Windows NT 10.0; Win64; x64) AppleWebKit/537.36 (KHTML, like Gecko) Chrome/116.0.0.0 Safari/537.36" etag="LX-pCeqbJklrbMHzZEKV" version="21.8.0" type="github">
  <diagram name="Страница — 1" id="Hhan7T0G00CRjPAYu1nw">
    <mxGraphModel dx="915" dy="498" grid="1" gridSize="10" guides="1" tooltips="1" connect="1" arrows="1" fold="1" page="1" pageScale="1" pageWidth="827" pageHeight="1169" math="0" shadow="0">
      <root>
        <mxCell id="0" />
        <mxCell id="1" parent="0" />
        <mxCell id="sdfhw1sLGvNVc_YLZKkX-1" value="Клиент" style="shape=umlLifeline;perimeter=lifelinePerimeter;container=1;collapsible=0;recursiveResize=0;rounded=0;shadow=0;strokeWidth=1;" vertex="1" parent="1">
          <mxGeometry x="20" y="20" width="100" height="300" as="geometry" />
        </mxCell>
        <mxCell id="sdfhw1sLGvNVc_YLZKkX-2" value="" style="points=[];perimeter=orthogonalPerimeter;rounded=0;shadow=0;strokeWidth=1;" vertex="1" parent="sdfhw1sLGvNVc_YLZKkX-1">
          <mxGeometry x="45" y="70" width="10" height="210" as="geometry" />
        </mxCell>
        <mxCell id="sdfhw1sLGvNVc_YLZKkX-16" value="Вызов коннектора" style="verticalAlign=bottom;endArrow=block;shadow=0;strokeWidth=1;entryX=0.032;entryY=0.053;entryDx=0;entryDy=0;entryPerimeter=0;fontSize=9;exitX=1.12;exitY=0.054;exitDx=0;exitDy=0;exitPerimeter=0;" edge="1" parent="sdfhw1sLGvNVc_YLZKkX-1" target="sdfhw1sLGvNVc_YLZKkX-6">
          <mxGeometry relative="1" as="geometry">
            <mxPoint x="55" y="81" as="sourcePoint" />
            <mxPoint x="233" y="80" as="targetPoint" />
          </mxGeometry>
        </mxCell>
        <mxCell id="sdfhw1sLGvNVc_YLZKkX-5" value="connector" style="shape=umlLifeline;perimeter=lifelinePerimeter;container=1;collapsible=0;recursiveResize=0;rounded=0;shadow=0;strokeWidth=1;" vertex="1" parent="1">
          <mxGeometry x="180" y="20" width="100" height="300" as="geometry" />
        </mxCell>
        <mxCell id="sdfhw1sLGvNVc_YLZKkX-6" value="" style="points=[];perimeter=orthogonalPerimeter;rounded=0;shadow=0;strokeWidth=1;" vertex="1" parent="sdfhw1sLGvNVc_YLZKkX-5">
          <mxGeometry x="45" y="70" width="10" height="210" as="geometry" />
        </mxCell>
        <mxCell id="sdfhw1sLGvNVc_YLZKkX-20" value="&lt;font style=&quot;font-size: 9px&quot;&gt;Обработка &lt;br&gt;полученного&lt;br&gt;&amp;nbsp;ответа&lt;/font&gt;" style="edgeStyle=orthogonalEdgeStyle;html=1;align=left;spacingLeft=2;endArrow=block;rounded=0;fontSize=8;exitX=-0.065;exitY=0.363;exitDx=0;exitDy=0;exitPerimeter=0;entryX=-0.088;entryY=0.52;entryDx=0;entryDy=0;entryPerimeter=0;" edge="1" parent="sdfhw1sLGvNVc_YLZKkX-5">
          <mxGeometry x="-0.0774" y="-60" relative="1" as="geometry">
            <mxPoint x="45" y="150" as="sourcePoint" />
            <Array as="points">
              <mxPoint x="11" y="150" />
              <mxPoint x="11" y="180" />
            </Array>
            <mxPoint x="45" y="180" as="targetPoint" />
            <mxPoint as="offset" />
          </mxGeometry>
        </mxCell>
        <mxCell id="sdfhw1sLGvNVc_YLZKkX-24" value="Возврат ответа клиента" style="verticalAlign=bottom;endArrow=open;dashed=1;endSize=8;shadow=0;strokeWidth=1;fontSize=9;exitX=-0.088;exitY=0.83;exitDx=0;exitDy=0;exitPerimeter=0;entryX=1.162;entryY=0.952;entryDx=0;entryDy=0;entryPerimeter=0;" edge="1" parent="sdfhw1sLGvNVc_YLZKkX-5" target="sdfhw1sLGvNVc_YLZKkX-2">
          <mxGeometry x="-0.0001" relative="1" as="geometry">
            <mxPoint x="-60" y="270" as="targetPoint" />
            <mxPoint x="45" y="270" as="sourcePoint" />
            <mxPoint as="offset" />
          </mxGeometry>
        </mxCell>
        <mxCell id="sdfhw1sLGvNVc_YLZKkX-9" value="Внешняя система" style="shape=umlLifeline;perimeter=lifelinePerimeter;container=1;collapsible=0;recursiveResize=0;rounded=0;shadow=0;strokeWidth=1;" vertex="1" parent="1">
          <mxGeometry x="340" y="20" width="100" height="300" as="geometry" />
        </mxCell>
        <mxCell id="sdfhw1sLGvNVc_YLZKkX-10" value="" style="points=[];perimeter=orthogonalPerimeter;rounded=0;shadow=0;strokeWidth=1;" vertex="1" parent="sdfhw1sLGvNVc_YLZKkX-9">
          <mxGeometry x="45" y="70" width="10" height="90" as="geometry" />
        </mxCell>
        <mxCell id="sdfhw1sLGvNVc_YLZKkX-18" value="Обработка &lt;br&gt;запроса" style="edgeStyle=orthogonalEdgeStyle;html=1;align=left;spacingLeft=2;endArrow=block;rounded=0;entryX=1;entryY=0.263;fontSize=9;entryDx=0;entryDy=0;entryPerimeter=0;exitX=1.083;exitY=0.098;exitDx=0;exitDy=0;exitPerimeter=0;" edge="1" parent="sdfhw1sLGvNVc_YLZKkX-9">
          <mxGeometry relative="1" as="geometry">
            <mxPoint x="56" y="99.49000000000001" as="sourcePoint" />
            <Array as="points">
              <mxPoint x="80" y="99.49000000000001" />
              <mxPoint x="80" y="130.49" />
            </Array>
            <mxPoint x="55" y="130.49" as="targetPoint" />
          </mxGeometry>
        </mxCell>
        <mxCell id="sdfhw1sLGvNVc_YLZKkX-19" value="Передача файла в ответе" style="verticalAlign=bottom;endArrow=block;shadow=0;strokeWidth=1;exitX=-0.139;exitY=0.316;exitDx=0;exitDy=0;exitPerimeter=0;fontSize=9;entryX=1.027;entryY=0.332;entryDx=0;entryDy=0;entryPerimeter=0;" edge="1" parent="sdfhw1sLGvNVc_YLZKkX-9" target="sdfhw1sLGvNVc_YLZKkX-6">
          <mxGeometry relative="1" as="geometry">
            <mxPoint x="45" y="140" as="sourcePoint" />
            <mxPoint x="-100" y="140" as="targetPoint" />
          </mxGeometry>
        </mxCell>
        <mxCell id="sdfhw1sLGvNVc_YLZKkX-12" value="file-service" style="shape=umlLifeline;perimeter=lifelinePerimeter;container=1;collapsible=0;recursiveResize=0;rounded=0;shadow=0;strokeWidth=1;" vertex="1" parent="1">
          <mxGeometry x="500" y="20" width="100" height="300" as="geometry" />
        </mxCell>
        <mxCell id="sdfhw1sLGvNVc_YLZKkX-13" value="" style="points=[];perimeter=orthogonalPerimeter;rounded=0;shadow=0;strokeWidth=1;" vertex="1" parent="sdfhw1sLGvNVc_YLZKkX-12">
          <mxGeometry x="45" y="200" width="10" height="60" as="geometry" />
        </mxCell>
        <mxCell id="sdfhw1sLGvNVc_YLZKkX-27" value="Сохранение файла&lt;br&gt;&amp;nbsp;в хранилище " style="edgeStyle=orthogonalEdgeStyle;html=1;align=left;spacingLeft=2;endArrow=block;rounded=0;entryX=1;entryY=0.263;fontSize=9;entryDx=0;entryDy=0;entryPerimeter=0;exitX=1.083;exitY=0.098;exitDx=0;exitDy=0;exitPerimeter=0;" edge="1" parent="sdfhw1sLGvNVc_YLZKkX-12">
          <mxGeometry relative="1" as="geometry">
            <mxPoint x="56" y="214.49" as="sourcePoint" />
            <Array as="points">
              <mxPoint x="80" y="214.49" />
              <mxPoint x="80" y="245.49" />
            </Array>
            <mxPoint x="55" y="245.49" as="targetPoint" />
            <mxPoint as="offset" />
          </mxGeometry>
        </mxCell>
        <mxCell id="sdfhw1sLGvNVc_YLZKkX-17" value="Вызов метода на &#xa;получение файла" style="verticalAlign=bottom;endArrow=block;shadow=0;strokeWidth=1;fontSize=9;exitX=1.12;exitY=0.054;exitDx=0;exitDy=0;exitPerimeter=0;entryX=-0.032;entryY=0.109;entryDx=0;entryDy=0;entryPerimeter=0;" edge="1" parent="1">
          <mxGeometry relative="1" as="geometry">
            <mxPoint x="235.32" y="111.19" as="sourcePoint" />
            <mxPoint x="384.99999999999994" y="109.99999999999994" as="targetPoint" />
          </mxGeometry>
        </mxCell>
        <mxCell id="sdfhw1sLGvNVc_YLZKkX-21" value="Передача файла в файловый сервис" style="verticalAlign=bottom;endArrow=block;shadow=0;strokeWidth=1;fontSize=9;entryX=-0.029;entryY=0.168;entryDx=0;entryDy=0;entryPerimeter=0;exitX=1.058;exitY=0.667;exitDx=0;exitDy=0;exitPerimeter=0;" edge="1" parent="1" source="sdfhw1sLGvNVc_YLZKkX-6" target="sdfhw1sLGvNVc_YLZKkX-13">
          <mxGeometry x="-0.0008" relative="1" as="geometry">
            <mxPoint x="240" y="230" as="sourcePoint" />
            <mxPoint x="540" y="230" as="targetPoint" />
            <mxPoint as="offset" />
          </mxGeometry>
        </mxCell>
        <mxCell id="sdfhw1sLGvNVc_YLZKkX-23" value="Возврат в контекст коннектора информации о файле&#xa; (_id, name, size, create-date)" style="verticalAlign=bottom;endArrow=open;dashed=1;endSize=8;shadow=0;strokeWidth=1;fontSize=9;exitX=-0.003;exitY=0.914;exitDx=0;exitDy=0;exitPerimeter=0;entryX=1.126;entryY=0.883;entryDx=0;entryDy=0;entryPerimeter=0;" edge="1" parent="1" source="sdfhw1sLGvNVc_YLZKkX-13" target="sdfhw1sLGvNVc_YLZKkX-6">
          <mxGeometry relative="1" as="geometry">
            <mxPoint x="250" y="270" as="targetPoint" />
            <mxPoint x="354" y="270" as="sourcePoint" />
          </mxGeometry>
        </mxCell>
      </root>
    </mxGraphModel>
  </diagram>
</mxfile>
